<svg version="1.1" id="Layer_1" xmlns="http://www.w3.org/2000/svg" xmlns:xlink="http://www.w3.org/1999/xlink" x="0px" y="0px" width="100%" viewBox="0 0 512 512" enable-background="new 0 0 512 512" xml:space="preserve">


<path fill="#FF421D" opacity="1.000000" stroke="none" d="
M1.000003,251.460632 
	C1.654717,250.508270 2.781604,250.107178 2.895926,249.511688 
	C7.070598,227.765717 14.776113,207.241348 24.942020,187.122040 
	C27.246931,186.494385 28.882973,186.158829 30.445395,185.612686 
	C69.062454,172.113983 108.377083,169.424484 148.326324,178.393356 
	C159.016220,180.793289 169.491776,184.148071 179.920685,187.420990 
	C177.183975,206.817795 174.346313,225.829834 172.152634,244.915878 
	C171.506531,250.537170 172.682892,256.367920 173.024048,262.102661 
	C171.574661,262.077606 169.966507,262.459717 168.699966,261.965790 
	C152.594772,255.685104 135.871063,251.452332 118.837822,249.292740 
	C104.482300,247.472641 89.814331,246.564575 75.380669,247.256241 
	C50.113266,248.467087 25.418514,253.544952 1.359831,262.887512 
	C1.000000,259.307098 1.000000,255.614182 1.000003,251.460632 
z" data-index="2" style="opacity: 1;"></path>
<path fill="#A4021A" opacity="1.000000" stroke="none" d="
M489.167297,186.919403 
	C494.810486,200.984543 500.703491,214.956635 505.991486,229.154083 
	C508.636108,236.254562 510.176208,243.766418 512.607910,251.046112 
	C513.000000,254.692917 513.000000,258.385834 513.000000,262.539368 
	C494.127167,256.281281 474.982513,250.588287 454.899109,249.015152 
	C442.874939,248.073303 430.765747,246.719406 418.770081,247.250870 
	C399.270264,248.114777 379.914795,250.829407 361.219543,256.975677 
	C355.797272,258.758301 350.318237,260.368286 344.136841,261.862640 
	C342.960541,259.805267 342.110199,257.939117 342.126373,256.080566 
	C342.306976,235.376862 339.879089,214.950989 335.895264,194.675369 
	C334.501648,187.582489 334.483917,187.446609 341.474823,185.066681 
	C363.197327,177.671692 385.582611,173.582245 408.492371,173.171051 
	C430.557465,172.775009 452.256256,175.870193 473.434448,182.261902 
	C478.670349,183.842133 483.922607,185.368332 489.167297,186.919403 
z" data-index="3" style="opacity: 1;"></path>
<path fill="#DE0518" opacity="1.000000" stroke="none" d="
M489.100830,186.561996 
	C483.922607,185.368332 478.670349,183.842133 473.434448,182.261902 
	C452.256256,175.870193 430.557465,172.775009 408.492371,173.171051 
	C385.582611,173.582245 363.197327,177.671692 341.474823,185.066681 
	C334.483917,187.446609 334.501648,187.582489 335.895264,194.675369 
	C339.879089,214.950989 342.306976,235.376862 342.126373,256.080566 
	C342.110199,257.939117 342.960541,259.805267 343.751953,261.851990 
	C342.956726,262.138733 341.732422,262.567505 340.692047,262.294739 
	C326.251953,258.508575 311.926849,254.231201 297.380219,250.924927 
	C289.451935,249.122940 281.158356,248.928085 272.269714,247.724884 
	C261.389313,247.580582 251.268723,247.719788 241.148148,247.859009 
	C218.602371,248.957764 196.908707,254.079041 175.740204,261.693726 
	C175.137253,261.910645 174.462051,261.926727 173.422287,262.069580 
	C172.682892,256.367920 171.506531,250.537170 172.152634,244.915878 
	C174.346313,225.829834 177.183975,206.817795 179.900574,187.419189 
	C180.025482,187.060883 180.055756,187.067642 180.430420,187.025818 
	C181.916611,186.642578 183.044373,186.346191 184.137329,185.953064 
	C206.582077,177.880417 229.792175,173.609329 253.574707,173.201202 
	C278.561310,172.772415 302.990540,176.734299 326.710175,184.766327 
	C328.818451,185.480240 330.969604,186.067490 333.502899,186.835464 
	C333.502899,185.025070 333.689392,184.028046 333.476013,183.125595 
	C324.728516,146.128830 310.720093,111.311996 288.488861,80.339005 
	C279.312317,67.554077 268.153717,56.191814 258.364899,44.118340 
	C263.265442,43.995461 267.697632,43.936733 272.129852,43.878010 
	C292.722473,46.067635 313.432190,47.807789 333.073029,54.987995 
	C347.128387,60.126286 361.346191,65.072197 374.799438,71.542877 
	C392.340912,79.979897 408.560211,90.816292 423.239105,103.729286 
	C441.064362,119.410103 457.900635,136.095108 471.216553,155.861282 
	C477.757385,165.570450 483.131927,176.065308 489.100830,186.561996 
z" data-index="4" style="opacity: 1;"></path>
<path fill="#666666" opacity="1.000000" stroke="none" d="
M241.446320,248.169937 
	C251.268723,247.719788 261.389313,247.580582 271.821289,247.741882 
	C272.088440,268.540283 272.015320,289.038177 272.005981,309.536072 
	C271.986267,352.868774 272.014771,396.201477 271.990692,439.534180 
	C271.983612,452.252472 267.204773,463.247284 259.434021,473.054138 
	C245.597626,490.516205 226.969070,496.932892 205.494904,494.814880 
	C189.378479,493.225342 176.095673,485.155884 166.249374,472.319946 
	C157.692932,461.165558 153.328018,448.379639 153.952316,434.066864 
	C154.233673,427.616730 154.000000,421.144135 154.000000,414.343567 
	C164.404480,414.343567 174.312134,414.343567 184.999405,414.343567 
	C184.999405,421.823578 184.985275,429.253326 185.002457,436.683044 
	C185.034012,450.321625 197.069611,462.919098 210.069077,464.104187 
	C228.238861,465.760590 240.727585,450.627747 241.037109,438.803558 
	C241.232193,431.351105 241.944809,423.905487 241.956131,416.456055 
	C242.037933,362.623627 242.002960,308.791016 241.989212,254.958466 
	C241.988663,252.799255 241.829651,250.640060 241.446320,248.169937 
z" data-index="5" style="opacity: 1;"></path>
<path fill="#FF6536" opacity="1.000000" stroke="none" d="
M180.045593,187.062683 
	C169.491776,184.148071 159.016220,180.793289 148.326324,178.393356 
	C108.377083,169.424484 69.062454,172.113983 30.445395,185.612686 
	C28.882973,186.158829 27.246931,186.494385 25.250668,186.953110 
	C29.619967,178.490372 34.063873,169.802780 39.214718,161.556747 
	C49.698208,144.773651 62.350353,129.621780 76.655075,116.026146 
	C93.752663,99.776077 112.685989,85.969513 133.531158,74.655594 
	C154.979340,63.014370 177.559036,54.618382 201.278961,49.536983 
	C214.332001,46.740700 227.777481,45.776447 241.947632,44.061745 
	C247.256500,44.150681 251.663788,44.164085 255.873550,44.440247 
	C249.484024,51.424267 242.981857,57.888313 237.156281,64.913422 
	C216.983154,89.240341 201.999878,116.604889 191.604980,146.354630 
	C186.960175,159.647827 183.858017,173.480042 180.055756,187.067642 
	C180.055756,187.067642 180.025482,187.060883 180.045593,187.062683 
z" data-index="6" style="opacity: 1;"></path>

<path fill="#FF421D" opacity="1.000000" stroke="none" d="
M255.873550,44.440247 
	C256.478149,44.145924 256.885254,44.114357 257.594452,44.132645 
	C268.153717,56.191814 279.312317,67.554077 288.488861,80.339005 
	C310.720093,111.311996 324.728516,146.128830 333.476013,183.125595 
	C333.689392,184.028046 333.502899,185.025070 333.502899,186.835464 
	C330.969604,186.067490 328.818451,185.480240 326.710175,184.766327 
	C302.990540,176.734299 278.561310,172.772415 253.574707,173.201202 
	C229.792175,173.609329 206.582077,177.880417 184.137329,185.953064 
	C183.044373,186.346191 181.916611,186.642578 180.430420,187.025818 
	C183.858017,173.480042 186.960175,159.647827 191.604980,146.354630 
	C201.999878,116.604889 216.983154,89.240341 237.156281,64.913422 
	C242.981857,57.888313 249.484024,51.424267 255.873550,44.440247 
z" data-index="8" style="opacity: 1;"></path>
</svg>